{"title":"Azhar (2016) 1 CD DvDRip XviD ESub -DDR-Exclusive","uid":15119836,"size":713087288,"categoryP":"video","categoryS":"movies","magnet":"?xt=urn:btih:d7fe056d6e4423b6637ed215095dcc3b4906098d&amp;dn=Azhar+%282016%29+1+CD+DvDRip+XviD+ESub+-DDR-Exclusive&amp;tr=udp%3A%2F%2Ftracker.leechers-paradise.org%3A6969&amp;tr=udp%3A%2F%2Fzer0day.ch%3A1337&amp;tr=udp%3A%2F%2Fopen.demonii.com%3A1337&amp;tr=udp%3A%2F%2Ftracker.coppersurfer.tk%3A6969&amp;tr=udp%3A%2F%2Fexodus.desync.com%3A6969","seeders":5,"leechers":3,"uploader":"SaM","files":3,"time":1467068027,"description":"- BollywooD MoviE -\r\n**- AZHAR -**\r\n- 2016 -\r\n** 1 CD DvDrip / XviD / MP3 2.0 **\r\nEnglish subtitle(s)\r\n \nhttp://extraimago.com/image/aDRf \nhttp://extraimago.com/image/aDRW \nhttp://extraimago.com/image/aDRA \nhttp://extraimago.com/image/aDRv \nhttp://extraimago.com/image/aDRu \nhttp://extraimago.com/image/aDRV \nhttp://extraimago.com/image/aDR6 \nhttp://extraimago.com/image/aDRx \nhttp://extraimago.com/image/aDRt \nhttp://extraimago.com/image/aDRo\r\n\r\n\r\n[ Specs ]\r\nGeneral\r\nSource = DVD9 @ DDR\r\n\r\nFormat : AVI\r\nFile size : 676 MiB\r\nDuration : 2h 11mn\r\nOverall bit rate mode : Variable\r\nOverall bit rate : 718 Kbps\r\n\r\nVideo\r\nFormat : MPEG-4 Visual\r\nFormat settings, Matrix : Custom\r\nCodec ID : XVID\r\nDuration : 2h 11mn\r\nBit rate : 630 Kbps\r\nWidth : 640 pixels\r\nHeight : 272 pixels\r\nDisplay aspect ratio : 2.35:1\r\nFrame rate : 23.976 (23976/1000) fps\r\nBit depth : 8 bits\r\nScan type : Progressive\r\nBits/(Pixel*Frame) : 0.151\r\nStream size : 593 MiB (88%)\r\n\r\nAudio\r\nFormat : MPEG Audio\r\nCodec ID/Hint : MP3\r\nDuration : 2h 11mn\r\nBit rate mode : Variable\r\nBit rate : 80.0 Kbps\r\nChannel(s) : 2 channels\r\nSampling rate : 32.0 KHz\r\nCompression mode : Lossy\r\nStream size : 73.5 MiB (11%)\r\n\r\n\r\nChapters: N/A\r\nSample: YES - included\r\n\r\nA DDR 8th Anniversary Exclusive Release...!","torrent":{"xt":"urn:btih:d7fe056d6e4423b6637ed215095dcc3b4906098d","amp;dn":"Azhar+%282016%29+1+CD+DvDRip+XviD+ESub+-DDR-Exclusive","amp;tr":["udp%3A%2F%2Ftracker.leechers-paradise.org%3A6969","udp%3A%2F%2Fzer0day.ch%3A1337","udp%3A%2F%2Fopen.demonii.com%3A1337","udp%3A%2F%2Ftracker.coppersurfer.tk%3A6969","udp%3A%2F%2Fexodus.desync.com%3A6969"],"infoHash":"d7fe056d6e4423b6637ed215095dcc3b4906098d","infoHashBuffer":{"type":"Buffer","data":[215,254,5,109,110,68,35,182,99,126,210,21,9,93,204,59,73,6,9,141]},"announce":[],"urlList":[]}}